<?xml version="1.0" standalone="no"?>
<!DOCTYPE svg PUBLIC "-//W3C//DTD SVG 20010904//EN"
 "http://www.w3.org/TR/2001/REC-SVG-20010904/DTD/svg10.dtd">
<svg version="1.0" xmlns="http://www.w3.org/2000/svg"
 width="50.000000pt" height="50.000000pt" viewBox="0 0 50.000000 50.000000"
 preserveAspectRatio="xMidYMid meet">

<g transform="translate(0.000000,50.000000) scale(0.100000,-0.100000)"
fill="#000000" stroke="none">
<path d="M72 427 c-21 -22 -22 -33 -22 -178 0 -208 -9 -199 201 -199 208 0
199 -9 199 201 0 208 9 199 -201 199 -150 0 -156 -1 -177 -23z m326 -29 c17
-17 17 -279 0 -296 -17 -17 -279 -17 -296 0 -17 17 -17 279 0 296 17 17 279
17 296 0z"/>
<path d="M230 315 l0 -45 -45 0 c-38 0 -45 -3 -45 -20 0 -17 7 -20 45 -20 l45
0 0 -45 c0 -38 3 -45 20 -45 17 0 20 7 20 45 l0 45 45 0 c38 0 45 3 45 20 0
17 -7 20 -45 20 l-45 0 0 45 c0 38 -3 45 -20 45 -17 0 -20 -7 -20 -45z"/>
</g>
</svg>
